<mxfile host="app.diagrams.net" modified="2021-10-19T09:31:24.323Z" agent="5.0 (Windows NT 10.0; Win64; x64) AppleWebKit/537.36 (KHTML, like Gecko) Chrome/94.0.4606.81 Safari/537.36 Edg/94.0.992.50" etag="NX3XuJyRkGF3UmErGFNE" version="15.5.5" type="github">
  <diagram id="VO5rTnhWLl3xIuCZ5PXz" name="Page-1">
    <mxGraphModel dx="1422" dy="804" grid="1" gridSize="10" guides="1" tooltips="1" connect="1" arrows="1" fold="1" page="1" pageScale="1" pageWidth="827" pageHeight="1169" math="0" shadow="0">
      <root>
        <mxCell id="0" />
        <mxCell id="1" parent="0" />
        <mxCell id="r9kRNUDu27QLfvGocsTX-1" value="后台获取菜品列表" style="shape=umlFrame;whiteSpace=wrap;html=1;width=120;height=30;boundedLbl=1;verticalAlign=middle;align=left;spacingLeft=5;" vertex="1" parent="1">
          <mxGeometry x="40" y="80" width="1450" height="360" as="geometry" />
        </mxCell>
        <mxCell id="r9kRNUDu27QLfvGocsTX-2" value="FoodController(菜品管理控制器)" style="swimlane;fontStyle=1;align=center;verticalAlign=top;childLayout=stackLayout;horizontal=1;startSize=30;horizontalStack=0;resizeParent=1;resizeParentMax=0;resizeLast=0;collapsible=0;marginBottom=0;html=1;fillColor=default;" vertex="1" parent="1">
          <mxGeometry x="80" y="160" width="270" height="90" as="geometry" />
        </mxCell>
        <mxCell id="r9kRNUDu27QLfvGocsTX-3" value="actions" style="html=1;strokeColor=none;fillColor=none;align=center;verticalAlign=middle;spacingLeft=4;spacingRight=4;rotatable=0;points=[[0,0.5],[1,0.5]];resizeWidth=1;" vertex="1" parent="r9kRNUDu27QLfvGocsTX-2">
          <mxGeometry y="30" width="270" height="30" as="geometry" />
        </mxCell>
        <mxCell id="r9kRNUDu27QLfvGocsTX-4" value="+ GetFoodInfoList(获取菜品列表) :&amp;nbsp;ActionResult" style="html=1;strokeColor=none;fillColor=none;align=center;verticalAlign=middle;spacingLeft=4;spacingRight=4;rotatable=0;points=[[0,0.5],[1,0.5]];resizeWidth=1;" vertex="1" parent="r9kRNUDu27QLfvGocsTX-2">
          <mxGeometry y="60" width="270" height="30" as="geometry" />
        </mxCell>
        <mxCell id="r9kRNUDu27QLfvGocsTX-5" value="&lt;p style=&quot;margin: 0px ; margin-top: 4px ; text-align: center&quot;&gt;&lt;i&gt;&amp;lt;&amp;lt;Interface&amp;gt;&amp;gt;&lt;/i&gt;&lt;br&gt;&lt;b&gt;IModel_Food&lt;/b&gt;&lt;br&gt;&lt;/p&gt;&lt;hr size=&quot;1&quot;&gt;&lt;p style=&quot;margin: 0px ; margin-left: 4px&quot;&gt;+GetFoodInfoList(FoodQuery query, out int totalRows) :&amp;nbsp;List&amp;lt;FoodInfo&amp;gt;&lt;br&gt;&lt;/p&gt;" style="verticalAlign=top;align=left;overflow=fill;fontSize=12;fontFamily=Helvetica;html=1;rounded=0;shadow=0;comic=0;labelBackgroundColor=none;strokeWidth=1" vertex="1" parent="1">
          <mxGeometry x="480" y="160" width="390" height="80" as="geometry" />
        </mxCell>
        <mxCell id="r9kRNUDu27QLfvGocsTX-6" value="&amp;lt;&amp;lt;keyword&amp;gt;&amp;gt;" style="endArrow=open;html=1;rounded=0;align=center;verticalAlign=bottom;dashed=1;endFill=0;labelBackgroundColor=none;entryX=0;entryY=0.5;entryDx=0;entryDy=0;exitX=1.014;exitY=0.3;exitDx=0;exitDy=0;exitPerimeter=0;" edge="1" parent="1" source="r9kRNUDu27QLfvGocsTX-3" target="r9kRNUDu27QLfvGocsTX-5">
          <mxGeometry relative="1" as="geometry">
            <mxPoint x="300" y="200" as="sourcePoint" />
            <mxPoint x="360" y="160" as="targetPoint" />
          </mxGeometry>
        </mxCell>
        <mxCell id="r9kRNUDu27QLfvGocsTX-7" value="Dependency1" style="resizable=0;html=1;align=center;verticalAlign=top;labelBackgroundColor=none;fillColor=default;" connectable="0" vertex="1" parent="r9kRNUDu27QLfvGocsTX-6">
          <mxGeometry relative="1" as="geometry" />
        </mxCell>
        <mxCell id="r9kRNUDu27QLfvGocsTX-12" value="Model_Food" style="swimlane;html=1;fontStyle=0;childLayout=stackLayout;horizontal=1;startSize=26;fillColor=none;horizontalStack=0;resizeParent=1;resizeLast=0;collapsible=1;marginBottom=0;swimlaneFillColor=#ffffff;rounded=0;shadow=0;comic=0;labelBackgroundColor=none;strokeWidth=1;fontFamily=Verdana;fontSize=10;align=center;" vertex="1" parent="1">
          <mxGeometry x="1000" y="160" width="400" height="78" as="geometry" />
        </mxCell>
        <mxCell id="r9kRNUDu27QLfvGocsTX-13" value="&lt;span&gt;+GetFoodInfoList(FoodQuery query, out int totalRows) :&amp;nbsp;List&amp;lt;FoodInfo&amp;gt;&lt;/span&gt;" style="text;html=1;strokeColor=none;fillColor=none;align=left;verticalAlign=top;spacingLeft=4;spacingRight=4;whiteSpace=wrap;overflow=hidden;rotatable=0;points=[[0,0.5],[1,0.5]];portConstraint=eastwest;" vertex="1" parent="r9kRNUDu27QLfvGocsTX-12">
          <mxGeometry y="26" width="400" height="26" as="geometry" />
        </mxCell>
        <mxCell id="r9kRNUDu27QLfvGocsTX-16" value="" style="endArrow=block;startArrow=none;endFill=0;startFill=0;endSize=8;html=1;verticalAlign=bottom;dashed=1;labelBackgroundColor=none;rounded=0;exitX=0;exitY=0.5;exitDx=0;exitDy=0;" edge="1" parent="1" source="r9kRNUDu27QLfvGocsTX-13" target="r9kRNUDu27QLfvGocsTX-5">
          <mxGeometry width="160" relative="1" as="geometry">
            <mxPoint x="980" y="270" as="sourcePoint" />
            <mxPoint x="1140" y="270" as="targetPoint" />
          </mxGeometry>
        </mxCell>
        <mxCell id="r9kRNUDu27QLfvGocsTX-17" value="M_Food" style="swimlane;html=1;fontStyle=0;childLayout=stackLayout;horizontal=1;startSize=26;fillColor=none;horizontalStack=0;resizeParent=1;resizeLast=0;collapsible=1;marginBottom=0;swimlaneFillColor=#ffffff;rounded=0;shadow=0;comic=0;labelBackgroundColor=none;strokeWidth=1;fontFamily=Verdana;fontSize=10;align=center;" vertex="1" parent="1">
          <mxGeometry x="1000" y="320" width="400" height="78" as="geometry" />
        </mxCell>
        <mxCell id="r9kRNUDu27QLfvGocsTX-18" value="&lt;span&gt;+&lt;/span&gt;GetPaggingList(FoodQuery query, out int totalRows) :&amp;nbsp;List&amp;lt;FoodInfo&amp;gt;" style="text;html=1;strokeColor=none;fillColor=none;align=left;verticalAlign=top;spacingLeft=4;spacingRight=4;whiteSpace=wrap;overflow=hidden;rotatable=0;points=[[0,0.5],[1,0.5]];portConstraint=eastwest;" vertex="1" parent="r9kRNUDu27QLfvGocsTX-17">
          <mxGeometry y="26" width="400" height="26" as="geometry" />
        </mxCell>
        <mxCell id="r9kRNUDu27QLfvGocsTX-19" value="&amp;lt;&amp;lt;keyword&amp;gt;&amp;gt;" style="endArrow=open;html=1;rounded=0;align=center;verticalAlign=bottom;dashed=1;endFill=0;labelBackgroundColor=none;entryX=0.5;entryY=0;entryDx=0;entryDy=0;exitX=0.5;exitY=1;exitDx=0;exitDy=0;" edge="1" parent="1" source="r9kRNUDu27QLfvGocsTX-12" target="r9kRNUDu27QLfvGocsTX-17">
          <mxGeometry relative="1" as="geometry">
            <mxPoint x="1190" y="240" as="sourcePoint" />
            <mxPoint x="1330" y="270" as="targetPoint" />
          </mxGeometry>
        </mxCell>
        <mxCell id="r9kRNUDu27QLfvGocsTX-20" value="Dependency1" style="resizable=0;html=1;align=center;verticalAlign=top;labelBackgroundColor=none;" connectable="0" vertex="1" parent="r9kRNUDu27QLfvGocsTX-19">
          <mxGeometry relative="1" as="geometry" />
        </mxCell>
      </root>
    </mxGraphModel>
  </diagram>
</mxfile>
